HIERARCHY
ROOT Hips
{
	OFFSET 0.000000 71.427986 0.000000
	CHANNELS 6 Xposition Yposition Zposition Xrotation Yrotation Zrotation
	JOINT Pelvis
	{
		OFFSET 0.000000 0.000000 0.000000
		CHANNELS 3 Xrotation Yrotation Zrotation
		JOINT LeftUpLeg
		{
			OFFSET 6.797100 -2.508499 -1.318700
			CHANNELS 3 Xrotation Yrotation Zrotation
			JOINT LeftLeg
			{
				OFFSET 0.069008 -29.241863 0.690200
				CHANNELS 3 Xrotation Yrotation Zrotation
				JOINT LeftFoot
				{
					OFFSET -0.069008 -29.568123 -0.266800
					CHANNELS 3 Xrotation Yrotation Zrotation
					JOINT LeftToeBase
					{
						OFFSET 3.145500 -8.631000 16.059900
						CHANNELS 3 Xrotation Yrotation Zrotation
						End Site
						{
							OFFSET 0.000000 18.501587 0.000000
						}
					}
				}
			}
			JOINT Left_ShortSleeve
			{
				OFFSET 0.265923 -10.480953 1.153800
				CHANNELS 3 Xrotation Yrotation Zrotation
				End Site
				{
					OFFSET 1.725763 19.823879 0.000000
				}
			}
		}
		JOINT RightUpLeg
		{
			OFFSET -6.797100 -2.508499 -1.318700
			CHANNELS 3 Xrotation Yrotation Zrotation
			JOINT RightLeg
			{
				OFFSET -0.082453 -29.241932 0.688000
				CHANNELS 3 Xrotation Yrotation Zrotation
				JOINT RightFoot
				{
					OFFSET 0.082453 -29.568058 -0.264600
					CHANNELS 3 Xrotation Yrotation Zrotation
					JOINT RightToeBase
					{
						OFFSET -3.115300 -8.682800 16.113400
						CHANNELS 3 Xrotation Yrotation Zrotation
						End Site
						{
							OFFSET 0.000000 18.567114 0.000000
						}
					}
				}
			}
			JOINT Right_ShortSleeve
			{
				OFFSET -0.265923 -10.480953 1.153800
				CHANNELS 3 Xrotation Yrotation Zrotation
				End Site
				{
					OFFSET -1.725766 19.823910 0.000000
				}
			}
		}
	}
	JOINT Spine
	{
		OFFSET 0.000000 13.368103 0.470500
		CHANNELS 3 Xrotation Yrotation Zrotation
		JOINT Spine1
		{
			OFFSET 0.147000 13.837402 0.538800
			CHANNELS 3 Xrotation Yrotation Zrotation
			JOINT Spine2
			{
				OFFSET 0.168000 16.242897 -1.435500
				CHANNELS 3 Xrotation Yrotation Zrotation
				JOINT Neck
				{
					OFFSET 0.217200 18.631500 -1.679100
					CHANNELS 3 Xrotation Yrotation Zrotation
					JOINT Head
					{
						OFFSET 0.000000 6.599396 1.385900
						CHANNELS 3 Xrotation Yrotation Zrotation
						JOINT Hat
						{
							OFFSET -0.532200 27.220596 -10.096100
							CHANNELS 3 Xrotation Yrotation Zrotation
							End Site
							{
								OFFSET 0.000000 22.029861 0.000000
							}
						}
						JOINT HairD
						{
							OFFSET -10.777400 17.437393 -1.325900
							CHANNELS 3 Xrotation Yrotation Zrotation
							JOINT HairD1
							{
								OFFSET -3.290299 -11.051193 1.062200
								CHANNELS 3 Xrotation Yrotation Zrotation
								End Site
								{
									OFFSET 0.000000 11.579437 0.000000
								}
							}
						}
						JOINT HairB
						{
							OFFSET -10.777400 17.437393 1.467900
							CHANNELS 3 Xrotation Yrotation Zrotation
							JOINT HairB1
							{
								OFFSET -1.561200 -12.956299 3.590200
								CHANNELS 3 Xrotation Yrotation Zrotation
								End Site
								{
									OFFSET 0.000000 13.534866 0.000000
								}
							}
						}
						JOINT HairA
						{
							OFFSET 9.713100 17.437393 1.467900
							CHANNELS 3 Xrotation Yrotation Zrotation
							JOINT HairA1
							{
								OFFSET 1.561200 -12.956299 3.590200
								CHANNELS 3 Xrotation Yrotation Zrotation
								End Site
								{
									OFFSET 0.000000 13.534866 0.000000
								}
							}
						}
						JOINT HairC
						{
							OFFSET 9.713100 17.437393 -1.325900
							CHANNELS 3 Xrotation Yrotation Zrotation
							JOINT HairC1
							{
								OFFSET 3.290300 -11.051193 1.062200
								CHANNELS 3 Xrotation Yrotation Zrotation
								End Site
								{
									OFFSET 0.000000 11.579437 0.000000
								}
							}
						}
					}
				}
				JOINT LeftShoulder
				{
					OFFSET 5.101800 15.108002 -2.763700
					CHANNELS 3 Xrotation Yrotation Zrotation
					JOINT LeftArm
					{
						OFFSET 9.825497 2.506317 -1.597400
						CHANNELS 3 Xrotation Yrotation Zrotation
						JOINT LeftForeArm
						{
							OFFSET 21.966244 0.000000 0.000000
							CHANNELS 3 Xrotation Yrotation Zrotation
							JOINT LeftHand
							{
								OFFSET 33.879036 0.000000 0.000000
								CHANNELS 3 Xrotation Yrotation Zrotation
								JOINT LeftHandThumb1
								{
									OFFSET 6.715286 -2.359680 3.363841
									CHANNELS 3 Xrotation Yrotation Zrotation
									JOINT LeftHandThumb2
									{
										OFFSET 2.507072 -1.447464 1.447461
										CHANNELS 3 Xrotation Yrotation Zrotation
										JOINT LeftHandThumb3
										{
											OFFSET 2.898338 -1.673355 1.673357
											CHANNELS 3 Xrotation Yrotation Zrotation
											End Site
											{
												OFFSET -0.295959 3.727692 -0.131651
											}
										}
									}
								}
								JOINT LeftHandIndex1
								{
									OFFSET 14.190811 -0.254547 3.840278
									CHANNELS 3 Xrotation Yrotation Zrotation
									JOINT LeftHandIndex2
									{
										OFFSET 3.551727 0.000000 -0.000000
										CHANNELS 3 Xrotation Yrotation Zrotation
										JOINT LeftHandIndex3
										{
											OFFSET 2.894196 0.000000 0.000000
											CHANNELS 3 Xrotation Yrotation Zrotation
											End Site
											{
												OFFSET -1.000603 2.690872 0.366626
											}
										}
									}
								}
								JOINT LeftHandMiddle1
								{
									OFFSET 13.776489 0.000000 0.000000
									CHANNELS 3 Xrotation Yrotation Zrotation
									JOINT LeftHandMiddle2
									{
										OFFSET 3.438232 0.000000 0.000000
										CHANNELS 3 Xrotation Yrotation Zrotation
										JOINT LeftHandMiddle3
										{
											OFFSET 3.691551 0.000000 0.000000
											CHANNELS 3 Xrotation Yrotation Zrotation
											End Site
											{
												OFFSET -1.082298 3.499527 0.457670
											}
										}
									}
								}
								JOINT LeftHandRing1
								{
									OFFSET 13.966164 -0.268127 -3.067488
									CHANNELS 3 Xrotation Yrotation Zrotation
									JOINT LeftHandRing2
									{
										OFFSET 3.162567 0.000000 0.000000
										CHANNELS 3 Xrotation Yrotation Zrotation
										JOINT LeftHandRing3
										{
											OFFSET 3.324348 0.000000 0.000000
											CHANNELS 3 Xrotation Yrotation Zrotation
											End Site
											{
												OFFSET -0.861900 3.184998 0.405154
											}
										}
									}
								}
								JOINT LeftHandPinky1
								{
									OFFSET 13.131393 -0.168503 -5.746925
									CHANNELS 3 Xrotation Yrotation Zrotation
									JOINT LeftHandPinky2
									{
										OFFSET 2.849182 0.000000 0.000000
										CHANNELS 3 Xrotation Yrotation Zrotation
										JOINT LeftHandPinky3
										{
											OFFSET 2.805038 0.000000 0.000000
											CHANNELS 3 Xrotation Yrotation Zrotation
											End Site
											{
												OFFSET -0.882500 2.642609 0.325652
											}
										}
									}
								}
							}
							JOINT Left_Sleeve
							{
								OFFSET 6.592125 -0.646545 0.805568
								CHANNELS 3 Xrotation Yrotation Zrotation
								End Site
								{
									OFFSET -0.000179 20.275787 -0.000000
								}
							}
						}
					}
				}
				JOINT RightShoulder
				{
					OFFSET -5.731700 15.108002 -2.763700
					CHANNELS 3 Xrotation Yrotation Zrotation
					JOINT RightArm
					{
						OFFSET -9.825497 2.506317 -1.597400
						CHANNELS 3 Xrotation Yrotation Zrotation
						JOINT RightForeArm
						{
							OFFSET -21.966242 0.000000 0.000000
							CHANNELS 3 Xrotation Yrotation Zrotation
							JOINT RightHand
							{
								OFFSET -33.879032 0.000000 0.000000
								CHANNELS 3 Xrotation Yrotation Zrotation
								JOINT RightHandThumb1
								{
									OFFSET -6.715286 -2.359680 3.363841
									CHANNELS 3 Xrotation Yrotation Zrotation
									JOINT RightHandThumb2
									{
										OFFSET -2.507072 -1.447464 1.447461
										CHANNELS 3 Xrotation Yrotation Zrotation
										JOINT RightHandThumb3
										{
											OFFSET -2.898338 -1.673355 1.673357
											CHANNELS 3 Xrotation Yrotation Zrotation
											End Site
											{
												OFFSET 0.295959 3.727692 -0.131651
											}
										}
									}
								}
								JOINT RightHandIndex1
								{
									OFFSET -14.190811 -0.254547 3.840278
									CHANNELS 3 Xrotation Yrotation Zrotation
									JOINT RightHandIndex2
									{
										OFFSET -3.551727 0.000000 -0.000000
										CHANNELS 3 Xrotation Yrotation Zrotation
										JOINT RightHandIndex3
										{
											OFFSET -2.894196 0.000000 0.000000
											CHANNELS 3 Xrotation Yrotation Zrotation
											End Site
											{
												OFFSET 1.000603 2.690872 0.366626
											}
										}
									}
								}
								JOINT RightHandMiddle1
								{
									OFFSET -13.776489 0.000000 0.000000
									CHANNELS 3 Xrotation Yrotation Zrotation
									JOINT RightHandMiddle2
									{
										OFFSET -3.438232 0.000000 0.000000
										CHANNELS 3 Xrotation Yrotation Zrotation
										JOINT RightHandMiddle3
										{
											OFFSET -3.691551 0.000000 0.000000
											CHANNELS 3 Xrotation Yrotation Zrotation
											End Site
											{
												OFFSET 1.082298 3.499527 0.457670
											}
										}
									}
								}
								JOINT RightHandRing1
								{
									OFFSET -13.966164 -0.268127 -3.067488
									CHANNELS 3 Xrotation Yrotation Zrotation
									JOINT RightHandRing2
									{
										OFFSET -3.162567 0.000000 0.000000
										CHANNELS 3 Xrotation Yrotation Zrotation
										JOINT RightHandRing3
										{
											OFFSET -3.324348 0.000000 0.000000
											CHANNELS 3 Xrotation Yrotation Zrotation
											End Site
											{
												OFFSET 0.861900 3.184998 0.405154
											}
										}
									}
								}
								JOINT RightHandPinky1
								{
									OFFSET -13.131393 -0.168503 -5.746925
									CHANNELS 3 Xrotation Yrotation Zrotation
									JOINT RightHandPinky2
									{
										OFFSET -2.849182 0.000000 0.000000
										CHANNELS 3 Xrotation Yrotation Zrotation
										JOINT RightHandPinky3
										{
											OFFSET -2.805038 0.000000 0.000000
											CHANNELS 3 Xrotation Yrotation Zrotation
											End Site
											{
												OFFSET 0.882500 2.642609 0.325652
											}
										}
									}
								}
							}
							JOINT Right_Sleeve
							{
								OFFSET -6.592125 -0.646545 0.805568
								CHANNELS 3 Xrotation Yrotation Zrotation
								End Site
								{
									OFFSET 0.000179 20.275787 -0.000000
								}
							}
						}
					}
				}
				JOINT Bind_Right_JacketString
				{
					OFFSET -3.534800 11.969597 7.200700
					CHANNELS 3 Xrotation Yrotation Zrotation
					JOINT Bind_Right_JacketString1
					{
						OFFSET -0.319900 -6.102600 2.794100
						CHANNELS 3 Xrotation Yrotation Zrotation
						End Site
						{
							OFFSET 0.000000 6.719452 0.000000
						}
					}
				}
				JOINT Bind_Left_JacketString
				{
					OFFSET 2.904800 11.969597 7.200700
					CHANNELS 3 Xrotation Yrotation Zrotation
					JOINT Bind_Left_JacketString1
					{
						OFFSET 0.364800 -5.904503 3.186800
						CHANNELS 3 Xrotation Yrotation Zrotation
						End Site
						{
							OFFSET 0.000000 6.719513 0.000000
						}
					}
				}
				JOINT HairE
				{
					OFFSET 5.915200 17.612701 -11.592200
					CHANNELS 3 Xrotation Yrotation Zrotation
					JOINT HairE1
					{
						OFFSET 0.289200 -7.171898 -1.284500
						CHANNELS 3 Xrotation Yrotation Zrotation
						End Site
						{
							OFFSET 0.000000 7.291756 0.000000
						}
					}
				}
				JOINT HairF
				{
					OFFSET -0.864800 17.612701 -11.592200
					CHANNELS 3 Xrotation Yrotation Zrotation
					JOINT HairF1
					{
						OFFSET 0.000000 -14.087097 -2.127501
						CHANNELS 3 Xrotation Yrotation Zrotation
						End Site
						{
							OFFSET 0.000000 14.246841 0.000000
						}
					}
				}
				JOINT HairG
				{
					OFFSET -8.087700 17.612701 -11.592200
					CHANNELS 3 Xrotation Yrotation Zrotation
					JOINT HairG1
					{
						OFFSET -0.293600 -6.081398 -0.910100
						CHANNELS 3 Xrotation Yrotation Zrotation
						End Site
						{
							OFFSET 0.000000 6.156120 0.000000
						}
					}
				}
			}
		}
	}
	JOINT Pouch
	{
		OFFSET 0.000000 4.394501 10.847300
		CHANNELS 3 Xrotation Yrotation Zrotation
		End Site
		{
			OFFSET 0.000000 21.880577 0.000000
		}
	}
	JOINT Bag
	{
		OFFSET -13.229000 4.813004 -0.593300
		CHANNELS 3 Xrotation Yrotation Zrotation
		End Site
		{
			OFFSET 0.000000 21.880577 0.000000
		}
	}
	JOINT OccupyGuyFacialAnim_Joint
	{
		OFFSET 1.000000 -70.206398 -1.655000
		CHANNELS 3 Xrotation Yrotation Zrotation
		End Site
		{
			OFFSET 0.000000 21.880577 0.000000
		}
	}
}
MOTION
Frames: 4
Frame Time: 0.016667
3.671553 69.739601 65.477707 -171.513208 67.261135 178.370786 0.000000 -0.000000 -0.000000 -23.162667 10.250912 4.808362 33.226415 4.144437 2.811293 -5.535031 1.733549 -13.600073 -0.000000 0.000003 -0.000000 0.000003 0.000003 -0.000000 -4.133496 -10.860146 -11.797005 27.165623 -9.406797 -2.926651 -19.376318 -5.081237 9.657348 -0.000000 -0.000000 -0.000000 0.000000 0.000000 -0.000000 10.474659 -3.437900 -6.367908 5.905954 -0.746151 -0.137392 5.913741 -0.679944 -0.131285 -10.724006 -0.020880 2.039223 -4.215060 13.545558 -3.367738 -0.000000 0.000004 -0.000000 -0.000000 0.000004 -0.000000 -0.000000 0.000004 -0.000000 -0.000000 0.000004 -0.000000 -0.000000 0.000003 -0.000000 -0.000000 0.000004 -0.000000 -0.000000 0.000003 -0.000000 -0.000000 0.000004 -0.000000 -0.000000 0.000004 -0.000000 4.565333 8.264139 -9.764209 -7.251022 -13.343456 -59.256508 -0.000007 -11.301082 -0.000016 9.160503 -15.323024 -1.192321 -3.469770 3.607312 7.883182 9.703638 22.223509 2.891176 0.000001 0.000001 -0.000003 0.162354 3.429612 -10.498183 0.209651 1.554731 -15.358570 -0.000001 0.000002 -0.000003 0.362544 4.206375 -18.344223 0.474612 2.311788 -23.200242 -0.000000 0.000000 -0.000003 0.689028 4.991692 -26.673256 0.865731 3.066790 -31.521456 0.000001 -0.000000 -0.000002 0.902504 5.377889 -30.995351 1.110593 3.433630 -35.838187 0.000000 -0.000001 0.000003 -0.000000 0.000001 -0.000003 1.424806 6.319842 17.460021 -2.214362 -4.391934 64.929875 0.000012 27.167072 0.000003 -23.146965 -17.077635 -15.152681 -1.986181 -5.435662 -3.761596 8.766480 -20.697681 -3.062071 -0.000001 -0.000003 -0.000002 2.057126 -6.108274 55.293571 5.419335 -4.594488 99.429400 -0.000002 -0.000000 0.000005 2.592851 -6.426560 62.973429 4.946626 -4.648183 93.567308 -0.000000 -0.000001 0.000003 2.854979 -6.549322 66.538583 4.919153 -4.649822 93.228209 -0.000000 0.000000 0.000001 1.542108 -5.696831 47.168197 2.898966 -4.313217 67.797359 -0.000000 0.000001 -0.000001 0.000000 -0.000001 -0.000000 -0.000002 -0.000000 0.000000 -0.000000 -0.000002 0.000000 -0.000002 -0.000000 0.000000 -0.000002 -0.000000 0.000000 -0.000002 -0.000000 0.000000 -0.000000 -0.000002 0.000000 -0.000002 -0.000000 0.000000 -0.000002 -0.000000 0.000000 -0.000002 -0.000000 0.000000 -0.000000 -0.000002 0.000000 0.000000 -0.000000 -0.000000 0.000000 -0.000000 -0.000000 0.000000 -0.000000 -0.000000 
3.788566 69.664131 65.126434 -172.160013 65.359050 178.996978 -0.000000 0.000001 0.000000 -22.759314 10.065757 4.902886 31.851334 5.115604 3.078071 -5.747586 2.070674 -13.048967 -0.000000 -0.000002 -0.000000 -0.000000 -0.000001 -0.000001 -3.562133 -11.366830 -11.793566 27.054449 -9.383715 -2.898451 -19.528899 -6.620969 9.856485 -0.000000 0.000000 -0.000000 -0.000000 -0.000001 -0.000000 10.517810 -3.410437 -6.539065 5.937756 -0.731595 -0.053678 5.944724 -0.659874 -0.046726 -10.723268 -0.058141 2.025080 -4.160084 14.345673 -3.272148 0.000000 0.000002 -0.000000 0.000000 0.000002 -0.000000 0.000000 0.000002 -0.000000 0.000000 0.000002 -0.000000 -0.000000 0.000002 -0.000000 0.000000 0.000002 -0.000000 -0.000000 0.000002 -0.000000 0.000000 0.000002 -0.000000 0.000000 0.000002 -0.000000 4.439871 8.094332 -9.464037 -6.237168 -11.834756 -59.241680 0.000002 -11.844590 0.000006 9.598138 -13.812537 -2.183853 -3.469771 3.607314 7.883182 9.703638 22.223511 2.891176 0.000000 0.000001 -0.000001 0.162355 3.429614 -10.498180 0.209651 1.554732 -15.358572 0.000002 0.000001 -0.000002 0.362545 4.206376 -18.344220 0.474611 2.311787 -23.200233 0.000001 0.000001 0.000001 0.689028 4.991693 -26.673251 0.865731 3.066790 -31.521456 0.000001 0.000000 -0.000002 0.902506 5.377890 -30.995347 1.110594 3.433630 -35.838187 -0.000001 -0.000000 0.000001 -0.000000 0.000000 -0.000001 1.440118 6.247008 17.504259 -2.407543 -5.275738 64.582499 0.000008 26.607765 -0.000011 -21.465304 -16.875371 -14.388026 -1.986180 -5.435663 -3.761589 8.766479 -20.697681 -3.062076 0.000000 -0.000001 0.000002 2.057129 -6.108276 55.293571 5.419334 -4.594491 99.429407 -0.000001 0.000000 0.000000 2.592853 -6.426560 62.973436 4.946627 -4.648184 93.567315 -0.000001 -0.000000 0.000003 2.854984 -6.549325 66.538590 4.919152 -4.649821 93.228216 0.000001 -0.000001 0.000003 1.542109 -5.696833 47.168200 2.898967 -4.313216 67.797346 -0.000000 0.000001 -0.000001 0.000000 -0.000000 0.000000 -0.000000 -0.000001 0.000000 0.000000 0.000001 -0.000001 -0.000000 -0.000001 0.000001 -0.000000 -0.000001 0.000001 -0.000000 -0.000001 0.000000 0.000000 0.000001 -0.000001 -0.000000 -0.000001 0.000001 -0.000000 -0.000001 0.000001 -0.000000 -0.000001 0.000000 0.000000 0.000001 -0.000001 -0.000000 0.000001 0.000000 -0.000000 0.000001 0.000000 -0.000000 0.000001 0.000000 
3.911346 69.586334 64.725449 -172.648317 63.459725 179.462688 -0.000000 -0.000002 -0.000001 -22.209895 9.810548 4.956369 30.347917 5.858848 3.298705 -5.806013 2.527046 -12.550245 0.000000 -0.000002 -0.000000 0.000003 -0.000002 -0.000001 -2.886736 -11.893081 -11.792893 26.854190 -9.370941 -2.863613 -19.647304 -8.139865 10.103007 -0.000000 0.000000 0.000000 -0.000000 0.000002 -0.000000 10.589821 -3.365441 -6.728851 5.956438 -0.710471 0.027102 5.962346 -0.633116 0.034887 -10.724161 -0.096668 2.008867 -4.103970 15.186881 -3.159080 0.000000 0.000001 -0.000000 0.000000 0.000001 -0.000000 0.000000 0.000001 0.000000 0.000000 0.000001 -0.000000 -0.000000 0.000001 -0.000000 0.000000 0.000001 -0.000000 -0.000000 0.000001 -0.000000 0.000000 0.000001 -0.000000 0.000000 0.000001 -0.000000 4.315416 7.926136 -9.159265 -5.366278 -10.439506 -59.331149 -0.000000 -12.405900 0.000008 10.104729 -12.230448 -3.230693 -3.469771 3.607313 7.883183 9.703637 22.223508 2.891174 0.000000 0.000001 -0.000002 0.162356 3.429613 -10.498182 0.209649 1.554731 -15.358572 0.000000 0.000001 -0.000003 0.362545 4.206377 -18.344222 0.474612 2.311789 -23.200244 0.000001 0.000001 -0.000001 0.689028 4.991693 -26.673256 0.865731 3.066789 -31.521453 -0.000001 0.000001 0.000000 0.902506 5.377891 -30.995351 1.110593 3.433630 -35.838187 -0.000000 -0.000000 -0.000002 0.000002 -0.000000 0.000000 1.452238 6.186898 17.530469 -2.514462 -6.093108 64.276158 -0.000003 26.010585 0.000012 -19.830693 -16.637567 -13.686434 -1.986180 -5.435660 -3.761596 8.766478 -20.697683 -3.062071 -0.000002 0.000001 0.000005 2.057126 -6.108277 55.293571 5.419335 -4.594489 99.429400 -0.000000 0.000000 0.000000 2.592852 -6.426562 62.973436 4.946626 -4.648183 93.567308 -0.000001 0.000000 -0.000006 2.854980 -6.549325 66.538583 4.919151 -4.649822 93.228223 0.000001 0.000001 -0.000004 1.542108 -5.696832 47.168204 2.898968 -4.313219 67.797359 -0.000000 0.000000 0.000001 0.000003 0.000000 0.000001 0.000001 0.000001 -0.000000 0.000000 0.000001 -0.000001 0.000001 0.000001 -0.000000 0.000001 0.000001 -0.000000 0.000001 0.000001 -0.000000 0.000000 0.000001 -0.000001 0.000001 0.000001 -0.000000 0.000001 0.000001 -0.000000 0.000001 0.000001 -0.000000 0.000000 0.000001 -0.000001 -0.000000 -0.000002 -0.000001 -0.000000 -0.000002 -0.000001 -0.000000 -0.000002 -0.000001 
4.037389 69.506439 64.274200 -173.030220 61.572448 179.820986 -0.000000 -0.000001 -0.000000 -21.545924 9.518140 4.966648 28.761121 6.416317 3.478379 -5.675119 3.096366 -12.199450 -0.000000 -0.000000 -0.000000 0.000001 -0.000001 -0.000000 -2.101999 -12.436592 -11.790842 26.537682 -9.364671 -2.821909 -19.732266 -9.650159 10.400575 0.000000 0.000000 -0.000000 -0.000000 0.000001 -0.000001 10.674970 -3.306438 -6.931688 5.960719 -0.683480 0.100004 5.965381 -0.600645 0.108446 -10.728264 -0.136310 1.990616 -4.053719 16.057577 -3.028832 0.000001 -0.000001 -0.000000 0.000001 -0.000001 -0.000000 0.000001 -0.000001 -0.000000 0.000001 -0.000001 0.000000 0.000000 -0.000001 0.000000 0.000001 -0.000001 0.000000 0.000000 -0.000001 0.000000 0.000001 -0.000001 -0.000000 0.000001 -0.000001 -0.000000 4.191121 7.756945 -8.850428 -4.627760 -9.151181 -59.511739 0.000004 -12.942797 0.000001 10.682207 -10.597906 -4.326575 -3.469771 3.607313 7.883181 9.703638 22.223509 2.891172 0.000000 -0.000000 0.000001 0.162356 3.429614 -10.498181 0.209650 1.554731 -15.358568 0.000001 0.000001 -0.000000 0.362545 4.206377 -18.344222 0.474612 2.311788 -23.200240 -0.000001 0.000000 0.000001 0.689028 4.991693 -26.673253 0.865730 3.066790 -31.521453 0.000000 0.000001 -0.000001 0.902505 5.377891 -30.995351 1.110592 3.433630 -35.838187 0.000000 -0.000000 0.000003 -0.000003 0.000001 0.000002 1.460383 6.141551 17.531883 -2.497084 -6.813986 64.020347 -0.000005 25.388725 0.000019 -18.293285 -16.391190 -13.073745 -1.986179 -5.435657 -3.761591 8.766479 -20.697681 -3.062070 0.000001 -0.000001 0.000000 2.057129 -6.108275 55.293571 5.419335 -4.594490 99.429407 0.000000 0.000000 0.000000 2.592851 -6.426560 62.973436 4.946627 -4.648183 93.567315 0.000000 -0.000001 0.000003 2.854979 -6.549322 66.538590 4.919152 -4.649821 93.228209 0.000001 0.000000 0.000002 1.542110 -5.696832 47.168200 2.898966 -4.313219 67.797352 0.000001 0.000000 -0.000001 0.000001 0.000000 0.000000 -0.000000 -0.000000 -0.000000 0.000001 0.000002 -0.000001 -0.000000 -0.000000 -0.000000 -0.000000 -0.000000 -0.000000 -0.000000 -0.000000 -0.000000 0.000001 0.000002 -0.000000 -0.000000 -0.000000 -0.000000 -0.000000 -0.000000 -0.000000 -0.000000 -0.000000 -0.000000 0.000001 0.000002 -0.000000 -0.000000 -0.000001 -0.000000 -0.000000 -0.000001 -0.000000 -0.000000 -0.000001 -0.000000 
